<svg id="Layer_1" data-name="Layer 1" xmlns="http://www.w3.org/2000/svg" viewBox="0 0 411.65 513.14"><defs><style>.cls-1{fill:#f15c2e;}</style></defs><title>appstore2</title><path class="cls-1" d="M257.05,513.1c-7.62-1.55-15.39-2.58-22.84-4.72Q162.1,487.69,137,416.85c-.43-1.22-.91-2.42-1.14-3-15.3-.95-30.12-1.44-44.84-2.9-20.91-2.07-41.47-6.09-60.8-14.71a94.69,94.69,0,0,1-16-9.12C4.74,380.36-.12,371.46-.09,359.15q.41-151.95,0-303.9c0-12.49,4.94-21.37,14.51-28.39C27.71,17.1,43.06,12,58.87,8.65,109.61-2.17,160.28-2.1,210.66,11.1c12.28,3.21,24,7.84,34.44,15.32,9.93,7.13,15.2,16.19,15.1,29.11-.41,57-.19,114-.19,171v6.64h9c64.27-.13,119.11,41.54,136.24,103.53,21.88,79.15-30.81,161.23-112,174.5-3.42.56-6.8,1.3-10.2,2ZM150,372.55c-.57,65.87,52.9,120,119.09,120.55,65.95.55,120.46-53.28,120.92-119.41.46-65.7-53.17-119.94-119.22-120.6S150.62,306.14,150,372.55Zm90-165.94c-11.75,4-23,8.55-34.64,11.66a306.87,306.87,0,0,1-34.22,6.55,9.68,9.68,0,0,1-11.09-8.48c-.74-5.83,2.41-10.18,8.61-11.36,5.88-1.12,11.86-1.74,17.74-2.84,16.08-3,31.76-7.22,45.83-16.06,5.3-3.34,8.85-7.38,7.86-14.28-.47-3.26-.08-6.65-.08-10v-19C204.73,159.92,167.74,164,130,164s-75-4.09-110-21.42c0,10.46.22,20.44-.09,30.4-.17,5.28,1.82,9.33,6,11.77,6.58,3.82,13.24,8.09,20.45,10.1,14.52,4,29.43,6.7,44.19,9.88,6.84,1.48,10.27,5.74,9.35,11.81-.85,5.64-6.22,9.37-12.8,8.16-12.41-2.28-24.9-4.41-37.07-7.66-10.16-2.71-19.92-6.94-30.06-10.58,0,7.35.65,15.06-.16,22.62-1.05,9.78,3.72,15.17,11.57,19.37,17.18,9.18,35.85,13,54.84,15.65A318.48,318.48,0,0,0,166,265c6.69-.76,14.44-.76,19.66-4.2,16-10.54,32.6-19.26,51.28-23.85,1.21-.3,2.94-1.95,3-3C240.16,224.7,240.06,215.43,240.06,206.61Zm-96-125.42C154.77,79.83,173.32,78,191.66,75c14.27-2.37,28.21-6.56,40.49-14.71,10-6.63,10.37-12.13.09-18a115.93,115.93,0,0,0-28.28-12C155.53,17.85,106.81,18,58.26,29.64A109.19,109.19,0,0,0,31,40.25c-14.53,8.09-14.25,13.29-.24,21.66a93,93,0,0,0,19.17,8.22C78,79.17,107,81,144.1,81.19Zm96-1.55C204.78,97,167.62,101,129.8,101S54.93,96.85,20,79.63c0,9.39.64,18.26-.18,27C19,115.8,23.35,121,30.59,125c2,1.12,4.09,2.23,6.21,3.18,19.69,8.75,40.59,12.29,61.85,14.31,34.38,3.25,68.48,1.71,102.11-6.51,12-2.93,23.8-6.6,33.6-14.49,2.51-2,5.28-5.41,5.45-8.31C240.45,102.23,240.07,91.22,240.07,79.64ZM159,286.36c-47.28,2.13-94.37.71-139-20.57,0,10.41.19,20.54-.09,30.66-.13,4.69,1.53,8.33,5.23,10.63,5.62,3.49,11.32,7.11,17.45,9.44C72,327.69,102.84,329.91,133.91,330c1.28,0,3.12-1.5,3.74-2.78,2-4.17,3.22-8.76,5.41-12.83C148.16,304.9,153.66,295.67,159,286.36ZM20,328.52c0,10.46.25,20.4-.1,30.31-.19,5.29,1.62,9.44,5.92,11.79,7.68,4.2,15.45,8.56,23.69,11.36,23.68,8,48.38,10.14,73.21,11,2.74.1,5.49,0,8.07,0V350.29C93.3,349.58,55.53,346.39,20,328.52Z"/><path class="cls-1" d="M271.09,347.31c-5.44-9.16-12.83-12.6-21.72-13.2-5-.34-10,0-15-.11-5.37-.12-8.84-3.35-8.94-8.08a8.09,8.09,0,0,1,8.48-8.56q30.72-.23,61.45,0c5.67.06,8.91,3.77,8.69,8.81-.2,4.77-3.49,7.67-9.11,7.82-4.57.11-9.16,0-13.84,0,2.5,4.12,4.43,8,7.05,11.3,1,1.29,3.56,1.8,5.46,1.92,6.24.39,9.85,2.74,10.4,7.24.62,5-2.25,8.85-7.31,9.46a59.34,59.34,0,0,1-6.45,0c-2.76,13.71-11.22,22.56-24.3,27.73,8.63,12.67,17,25,25.45,37.39,1.5,2.2,3.12,4.33,4.4,6.66,2.18,4,1.34,8.34-1.84,10.8s-8.59,2.29-11.56-.44a23.58,23.58,0,0,1-3.42-4.26c-9.83-14.44-19.69-28.86-29.37-43.41-1.78-2.67-3.66-3.93-6.9-3.63a56.09,56.09,0,0,1-9,0c-5.26-.37-8.51-3.92-8.29-8.75.21-4.58,3.55-7.65,8.61-7.89,7.13-.33,14.34-.09,21.36-1.14s12.63-5.26,16.39-13H246.23c-4,0-8,.09-12,0-5.41-.17-8.76-3.38-8.79-8.2s3.16-8.22,8.67-8.38c9.32-.27,18.65-.1,28-.11Z"/><path class="cls-1" d="M130.06,227.07A10,10,0,1,1,140,217,9.84,9.84,0,0,1,130.06,227.07Z"/></svg>