<svg id="Layer_1" data-name="Layer 1" xmlns="http://www.w3.org/2000/svg" viewBox="0 0 171.2 255.98"><defs><style>.cls-1{fill:#f15c2e;}</style></defs><title>appstore1</title><path class="cls-1" d="M171.38,46.1v189c-.6,2.19-1.13,4.41-1.81,6.58-2.39,7.61-8.47,11.36-15.19,14.42h-137C6.7,252.24.16,245.47.18,233.32c.1-61.6,0-123.2.07-184.81,0-14.3,8.69-22.84,23.11-22.95,11.66-.1,23.31,0,35,0,1.77,0,3.55-.15,5.22-.23C66.78,7.18,72.92.18,85.29.12,98,.06,104.26,7,107.67,25.53h5.23c11.82,0,23.65-.11,35.46,0,10.78.14,18.79,5.94,21.6,15.27C170.48,42.58,170.91,44.34,171.38,46.1ZM34.77,51.57H26.38V229.9H111c0-8.92,0-17.55,0-26.17,0-6.76.81-7.54,7.43-7.55,8.76,0,17.53,0,26.44,0V51.65h-8.43c.07,7.74-.5,8.34-7.83,8.34H42.18C34.93,60,34,58.9,34.77,51.57Zm95.89-17.21c1,8.23,1.06,8.31,8.55,8.32h6.5c7.34,0,8.11.74,8.11,7.92q0,90.24,0,180.47c0,7.17-.83,8-8.1,8H25.24c-7.43,0-7.95-.51-7.95-8v-141c0-13.5,0-27,0-40.49,0-6,.9-6.84,7-6.91,2.67,0,5.33,0,8,0,6.73,0,7.42-.72,7.89-8.47H26.75c-14,0-17.9,3.84-17.9,17.69q0,89,0,178c0,1.5,0,3,.06,4.5.53,8.2,5.27,12.85,13.46,12.85q63.22.07,126.47-.1a16.6,16.6,0,0,0,8.7-2.93c4.4-3,4.77-8,4.76-13q0-90.24,0-180.46a33.17,33.17,0,0,0-.22-5c-1-6.4-5.09-10.8-11.51-11.26C144,34,137.31,34.36,130.66,34.36ZM44.81,50.88H126.2c-1.51-4.62-3-8.82-4.25-13.11-.75-2.66-2-3.8-4.92-3.63-4.32.25-8.66,0-13,.08-4,.1-5.8-1.57-5.77-5.64a46.21,46.21,0,0,0-.73-10.4C96.16,12,91,8.59,84.55,8.93A11.85,11.85,0,0,0,73.16,19.52a68.66,68.66,0,0,0-.37,9c0,3.89-1.7,5.85-5.76,5.74-4.5-.13-9-.18-13.49.07-1.36.08-3.42,1-3.84,2C47.85,40.93,46.49,45.71,44.81,50.88Zm82.56,178.88h17.47V212.41Zm-7.55-7.3L137,205.36H119.82Z" transform="translate(-0.18 -0.12)"/><path class="cls-1" d="M132.22,102.52v8.21H55.78v-8.21Z" transform="translate(-0.18 -0.12)"/><path class="cls-1" d="M55.76,187.57v-8.16H132v8.16Z" transform="translate(-0.18 -0.12)"/><path class="cls-1" d="M55.63,136.39v-7.9H132v7.9Z" transform="translate(-0.18 -0.12)"/><path class="cls-1" d="M132.22,153.89v7.92H55.76v-7.92Z" transform="translate(-0.18 -0.12)"/><path class="cls-1" d="M55.66,85V77.25h76.45V85Z" transform="translate(-0.18 -0.12)"/><path class="cls-1" d="M55.69,213v-7.84h46.58V213Z" transform="translate(-0.18 -0.12)"/><path class="cls-1" d="M38.67,187.58v-8H47v8Z" transform="translate(-0.18 -0.12)"/><path class="cls-1" d="M38.65,110.64v-8h8.23v8Z" transform="translate(-0.18 -0.12)"/><path class="cls-1" d="M47.08,153.8v8H38.82v-8Z" transform="translate(-0.18 -0.12)"/><path class="cls-1" d="M47,136.43H38.78v-8.09H47Z" transform="translate(-0.18 -0.12)"/><path class="cls-1" d="M46.89,213.16H38.83v-8h8.06Z" transform="translate(-0.18 -0.12)"/><path class="cls-1" d="M46.9,85.25H38.82V77.19H46.9Z" transform="translate(-0.18 -0.12)"/><path class="cls-1" d="M81.69,17.24h7.77v8.37H81.69Z" transform="translate(-0.18 -0.12)"/></svg>